<svg width="1024" height="1024" viewBox="0 0 1024 1024" fill="none"
  xmlns="http://www.w3.org/2000/svg">
  <g clip-path="url(#clip0_356_833)">
    <rect width="1024" height="1024" fill="url(#paint0_linear_356_833)" />
    <path
      d="M268.16 925.639C191.57 925.639 123.103 909.587 61.5989 877.481C0.094635 845.376 -48.6444 799.512 -84.6186 738.741C-120.593 677.971 -138 609.174 -138 530.057C-138 450.941 -120.593 382.144 -84.6186 321.373C-48.6444 260.603 -1.06563 214.738 60.4386 182.633C121.943 150.528 190.41 134.475 267 134.475C343.59 134.475 412.057 150.528 473.561 182.633C535.066 214.738 582.644 260.603 618.619 321.373C653.432 380.997 672 450.941 672 530.057C672 609.174 654.593 679.117 619.779 738.741C584.966 798.365 537.387 844.23 475.882 876.335C415.539 908.44 347.071 924.493 270.481 924.493L268.16 925.639ZM268.16 721.542C313.418 721.542 351.714 705.489 381.886 672.237C412.057 638.986 427.143 591.974 427.143 530.057C427.143 468.14 412.057 419.982 380.725 387.877C350.553 355.772 311.097 338.573 264.679 338.573C218.261 338.573 181.126 354.625 149.794 387.877C118.462 421.129 103.375 468.14 103.375 530.057C103.375 591.974 119.622 638.986 150.954 672.237C183.447 705.489 221.742 721.542 267 721.542H268.16Z"
      fill="white" />
    <path
      d="M669.677 264.043C669.677 246.844 667.356 197.539 667.356 197.539C667.356 170.021 647.629 144.795 622.099 135.622C603.531 128.742 588.445 129.889 573.359 136.769C526.941 158.554 492.127 215.885 471.239 258.31C471.239 260.603 471.239 261.75 468.918 264.043C456.153 290.415 446.869 316.787 441.067 345.453C436.425 368.385 432.944 392.464 432.944 416.543V585.095H617.457L670.838 548.403V265.19L669.677 264.043Z"
      fill="white" />
    <ellipse cx="552.377" cy="626.269" rx="58.0181" ry="84.39"
      transform="rotate(14.5657 552.377 626.269)" fill="#737373" />
    <ellipse cx="271.698" cy="453.414" rx="26.7672" ry="38.9341"
      transform="rotate(14.5657 271.698 453.414)" fill="white" />
    <ellipse cx="205.698" cy="453.414" rx="26.7672" ry="38.9341"
      transform="rotate(14.5657 205.698 453.414)" fill="white" />
    <path opacity="0.28"
      d="M537.765 851.026C513.732 805.733 520.357 748.557 555.861 714.459C735.29 540.594 606.422 332.568 577.748 292.463C545.76 246.111 550.146 177.752 591.12 140.028C632.093 102.304 692.17 111.03 726.354 158.037C825.883 296.842 944.816 625.467 683.731 878.81C643.587 918.096 582.972 911.838 547.42 865.737C544.105 859.49 541.619 854.804 538.304 848.557L537.765 851.026Z"
      fill="white" />
    <path opacity="0.28"
      d="M795.18 996.243C771.293 951.227 777.969 894.341 813.39 860.363C1127.26 555.723 880.693 188.311 852.176 148.464C819.541 100.855 824.825 34.3988 865.699 -3.19501C906.573 -40.7888 966.42 -32.207 1000.42 14.4977C1139.71 207.526 1307.31 669.264 939.216 1024.55C899.166 1063.69 838.779 1057.57 803.417 1011.77C800.122 1005.56 797.651 1000.9 794.356 994.691L795.18 996.243Z"
      fill="white" />
  </g>
  <defs>
    <linearGradient id="paint0_linear_356_833" x1="819.838" y1="1118.81" x2="1505.74" y2="411.448"
      gradientUnits="userSpaceOnUse">
      <stop stop-color="#FF8C42" />
      <stop offset="1" stop-color="#FF7318" />
    </linearGradient>
    <clipPath id="clip0_356_833">
      <rect width="1024" height="1024" rx="136" fill="white" />
    </clipPath>
  </defs>
</svg>